<?xml version="1.0" encoding="UTF-8"?>
<svg id="_레이어_1" data-name="레이어 1" xmlns="http://www.w3.org/2000/svg" viewBox="0 0 48 48">
  <defs>
    <style>
      .cls-1 {
        fill: #3c2929;
      }

      .cls-1, .cls-2 {
        fill-rule: evenodd;
      }

      .cls-2 {
        fill: #ffeb00;
      }
    </style>
  </defs>
  <path class="cls-2" d="m0,24C0,10.74,10.74,0,24,0s24,10.74,24,24-10.74,24-24,24S0,37.26,0,24Z"/>
  <path class="cls-1" d="m24,11.28c8.28,0,15,5.31,15,11.85s-6.72,11.85-15,11.85c-.92,0-1.82-.07-2.7-.19l-6.08,4.1c-.19.15-.46.12-.6-.07-.09-.11-.12-.27-.07-.41l1.41-5.28c-4.18-2.1-6.96-5.8-6.96-10.01,0-6.54,6.72-11.85,15-11.85Zm6.22,8.41c-.42,0-.72.3-.72.71v5.94c0,.41.29.69.72.69s.72-.3.72-.69v-1.93l.51-.53,1.88,2.57c.28.37.43.54.69.57.04,0,.08,0,.11,0,.15,0,.66-.04.72-.56.04-.29-.14-.52-.35-.8l-2.04-2.67,1.73-1.74.18-.2c.23-.26.35-.39.35-.59,0-.42-.34-.65-.69-.66-.27,0-.46.15-.57.26l-2.53,2.63v-2.3c0-.42-.29-.71-.72-.71Zm-9.36,0c-.56,0-.92.43-1.07.84l-2.08,5.52c-.04.1-.06.21-.07.32,0,.37.31.66.71.66.36,0,.58-.16.69-.51l.32-.97h3l.31.98c.11.33.34.5.7.5s.66-.27.66-.62c0-.06-.02-.2-.08-.37l-2.02-5.51c-.19-.53-.58-.83-1.07-.84Zm-2.92.06h-4.45c-.42,0-.64.34-.64.65,0,.3.17.65.64.65h1.51v5.21c0,.46.27.75.72.75s.72-.29.72-.75v-5.21h1.51c.47,0,.64-.35.64-.65,0-.32-.23-.65-.64-.65Zm7.55-.06c-.44,0-.72.29-.72.75v5.71c0,.5.28.79.75.79h2.67c.43,0,.68-.32.69-.63.01-.18-.05-.35-.17-.48-.12-.13-.3-.2-.52-.2h-1.99v-5.19c0-.46-.27-.75-.72-.75Zm-4.63,1.31h0s1.08,3.27,1.08,3.27h-2.19l1.08-3.26s.01-.01.02,0c0,0,0,0,0,0h0Z"/>
</svg>